<svg width="1391" height="1453" viewBox="0 0 1391 1453" fill="none" xmlns="http://www.w3.org/2000/svg">
<g filter="url(#filter0_f_327_16)">
<path fill-rule="evenodd" clip-rule="evenodd" d="M378.501 196.444C424.686 172.892 510.557 300.313 578.105 337.066C622.883 361.431 660.035 336.032 704.12 373.619C748.176 411.18 761.604 488.633 804.562 530.143C889.109 611.84 1000.47 615.334 1064.21 721.568C1117.3 810.061 1072.61 882.409 1055.07 947.651C1038.44 1009.5 1025.97 1089.84 965.533 1088.6C902.5 1087.3 816.934 950.524 750.98 941.378C675.289 930.882 671.756 1101.77 588.998 1036.38C507.429 971.93 534.719 838.809 491.353 736.232C465.224 674.426 402.641 619.849 387.445 559.632C372.313 499.671 413.317 475.425 411.996 421.774C410.24 350.467 333.763 219.258 378.501 196.444Z" fill="url(#paint0_linear_327_16)" fill-opacity="0.3"/>
</g>
<defs>
<filter id="filter0_f_327_16" x="0.480713" y="-170.439" width="1452.9" height="1623.05" filterUnits="userSpaceOnUse" color-interpolation-filters="sRGB">
<feFlood flood-opacity="0" result="BackgroundImageFix"/>
<feBlend mode="normal" in="SourceGraphic" in2="BackgroundImageFix" result="shape"/>
<feGaussianBlur stdDeviation="182" result="effect1_foregroundBlur_327_16"/>
</filter>
<linearGradient id="paint0_linear_327_16" x1="374.996" y1="198.574" x2="967.671" y2="1099.3" gradientUnits="userSpaceOnUse">
<stop stop-color="#CE09FF"/>
<stop offset="0.526042" stop-color="#0A3BDB" stop-opacity="0.36"/>
<stop offset="1" stop-color="#00FFA3"/>
</linearGradient>
</defs>
</svg>
