<svg width="1512" height="469" viewBox="0 0 1512 469" fill="none" xmlns="http://www.w3.org/2000/svg">
<path d="M-7 174.993C52.6441 237.961 35.4005 300.934 188.467 278.593C379.801 250.666 349.684 119.14 414.052 133.553C478.42 147.967 729.079 307.421 912.464 197.064C1329.38 -53.8265 1328.2 -39.4127 1512.45 102.924" stroke="url(#paint0_linear_160_132)" stroke-opacity="0.35"/>
<path d="M-4.99023 397.13C40.1153 417.381 148.889 355.807 256.189 429.982C371.415 509.636 495.504 266.173 627.276 321.976C759.047 377.779 892.176 541.454 1038.54 429.982C1139.59 353.028 1309.18 160.572 1512.45 223.576" stroke="url(#paint1_linear_160_132)" stroke-opacity="0.35"/>
<path d="M-7 180.584C52.1779 242.111 38.9964 301.003 190.594 281.797C379.482 257.368 354.335 122.364 420.879 138.098C487.424 153.832 734.304 313.262 916.503 202.98C1323.26 -42.0488 1327.58 -34.3217 1512.45 105.313" stroke="url(#paint2_linear_160_132)" stroke-opacity="0.35"/>
<path d="M-7 186.652C51.7117 246.882 42.5927 301.831 192.721 285.717C379.164 264.729 358.988 125.928 427.708 143.02C496.428 160.112 739.529 319.893 920.543 209.427C1317.13 -30.3136 1326.96 -29.2571 1512.45 108.003" stroke="url(#paint3_linear_160_132)" stroke-opacity="0.35"/>
<path d="M-7 191.95C51.2454 250.852 46.1895 301.824 194.849 288.815C378.845 271.286 363.64 128.745 434.537 147.19C505.434 165.635 744.756 325.692 924.583 215.093C1311 -19.2368 1326.34 -24.8658 1512.45 109.951" stroke="url(#paint4_linear_160_132)" stroke-opacity="0.35"/>
<path d="M-7 197.998C50.779 255.538 49.7868 302.499 196.976 292.606C378.526 278.55 368.294 132.345 441.367 152.134C514.44 171.923 749.982 332.167 928.624 221.497C1304.87 -7.2832 1325.72 -19.6021 1512.45 112.693" stroke="url(#paint5_linear_160_132)" stroke-opacity="0.35"/>
<path d="M-7 204.009C50.3126 260.145 53.3845 303.063 199.104 296.293C378.207 285.719 372.948 135.956 448.198 157.074C523.448 178.193 755.21 338.508 932.665 227.847C1298.74 4.78073 1325.09 -14.2182 1512.45 115.459" stroke="url(#paint6_linear_160_132)" stroke-opacity="0.35"/>
<path d="M-7 209.951C49.8462 264.633 56.9826 303.474 201.233 299.827C377.888 292.739 377.602 139.567 455.03 161.992C532.457 184.418 760.438 344.652 936.707 234.105C1292.61 16.9536 1324.47 -8.69519 1512.45 118.246" stroke="url(#paint7_linear_160_132)" stroke-opacity="0.35"/>
<path d="M-5.99512 216.271C50.3472 269.591 61.5414 304.424 204.227 303.892C378.32 300.275 383.005 143.44 462.557 167.208C542.109 190.977 766.161 351.399 941.128 240.781C1286.63 29.1735 1323.98 -3.16092 1512.45 121.261" stroke="url(#paint8_linear_160_132)" stroke-opacity="0.35"/>
<path d="M-5.99512 222.476C49.8809 274.368 65.1381 305.152 206.354 307.732C378.001 307.587 387.658 147.292 469.386 172.373C551.115 197.453 771.386 357.859 945.167 247.31C1280.5 41.5126 1323.35 2.5383 1512.45 124.284" stroke="url(#paint9_linear_160_132)" stroke-opacity="0.35"/>
<path d="M-5.99512 228.42C49.4146 279.009 68.7352 305.816 208.482 311.517C377.682 314.845 392.311 150.701 476.216 177.155C560.121 203.608 776.613 364.386 949.208 253.638C1274.37 53.156 1322.73 7.44463 1512.45 126.806" stroke="url(#paint10_linear_160_132)" stroke-opacity="0.35"/>
<path d="M-5.99512 235.1C48.9482 284.342 72.3328 307.143 210.61 315.966C377.364 322.772 396.965 154.904 483.047 182.713C569.129 210.521 781.84 371.54 953.249 260.684C1268.24 65.6906 1322.11 13.2654 1512.45 130.142" stroke="url(#paint11_linear_160_132)" stroke-opacity="0.35"/>
<path d="M-5.99512 241.756C48.4817 289.61 75.9309 308.384 212.738 320.323C377.045 330.604 401.619 159.146 489.878 188.287C578.137 217.428 787.068 378.558 957.291 267.683C1262.11 78.3395 1321.49 19.24 1512.45 133.536" stroke="url(#paint12_linear_160_132)" stroke-opacity="0.35"/>
<path d="M-5.99512 248.39C48.0152 294.819 79.5294 309.556 214.866 324.598C376.726 338.341 406.274 163.436 496.711 193.885C587.147 224.333 792.297 385.444 961.333 274.64C1255.98 91.0919 1320.87 25.3738 1512.45 136.999" stroke="url(#paint13_linear_160_132)" stroke-opacity="0.35"/>
<path d="M-5.99512 255.005C47.5487 299.977 83.1283 310.675 216.995 328.8C376.407 345.983 410.93 167.783 503.544 199.511C596.158 231.239 797.526 392.2 965.376 281.556C1249.85 103.936 1320.25 31.671 1512.45 140.543" stroke="url(#paint14_linear_160_132)" stroke-opacity="0.35"/>
<path d="M-5.99512 262.137C47.082 305.76 86.7277 312.451 219.124 333.698C376.088 354.359 415.586 172.439 510.378 205.521C605.17 238.602 802.756 399.801 969.419 289.052C1243.72 116.926 1319.63 37.9482 1512.45 144.332" stroke="url(#paint15_linear_160_132)" stroke-opacity="0.35"/>
<path d="M-5.99512 269.031C46.6153 311.408 90.3275 314.094 221.253 338.527C375.769 362.73 420.243 176.628 517.213 211.15C614.183 245.672 807.987 407.506 973.463 296.378C1237.58 129.342 1319 43.4324 1512.45 147.581" stroke="url(#paint16_linear_160_132)" stroke-opacity="0.35"/>
<path d="M-5.99512 276.155C46.1486 317.116 93.9278 315.777 223.383 343.306C375.45 370.963 424.9 181.406 524.049 217.235C623.198 253.064 813.218 414.895 977.507 303.827C1231.45 142.552 1318.38 50.035 1512.45 151.531" stroke="url(#paint17_linear_160_132)" stroke-opacity="0.35"/>
<path d="M-5.99512 283.275C45.6818 322.792 97.5285 317.439 225.512 348.036C375.131 379.117 429.558 186.256 530.886 223.362C632.213 260.468 818.45 422.175 981.551 311.249C1225.31 155.842 1317.76 56.8037 1512.45 155.579" stroke="url(#paint18_linear_160_132)" stroke-opacity="0.35"/>
<path d="M-5.99512 290.932C45.2149 329.106 101.13 319.73 227.642 353.468C374.812 388.048 434.217 191.404 537.723 229.879C641.23 268.353 823.682 430.339 985.597 319.279C1219.18 169.348 1317.14 63.5459 1512.45 159.848" stroke="url(#paint19_linear_160_132)" stroke-opacity="0.35"/>
<path d="M-5.99512 298.355C44.748 335.106 104.731 321.727 229.773 358.534C374.492 396.54 438.876 196.529 544.562 236.29C650.247 276.051 828.916 437.975 989.642 327.015C1213.04 182.874 1316.52 70.534 1512.45 164.162" stroke="url(#paint20_linear_160_132)" stroke-opacity="0.35"/>
<path d="M-4.99023 306.361C45.2526 341.789 109.263 324.37 232.751 364.348C374.927 405.884 444.243 201.956 552.037 243.114C659.831 284.271 834.598 446.577 994.032 335.413C1207.11 196.666 1316.02 77.4788 1512.45 168.688" stroke="url(#paint21_linear_160_132)" stroke-opacity="0.35"/>
<path d="M-4.99023 313.634C44.7859 347.717 112.863 326.257 234.88 369.394C374.608 414.446 448.9 206.697 558.873 249.233C668.845 291.77 839.829 454.375 998.076 343.063C1200.97 209.796 1315.4 83.8055 1512.45 172.544" stroke="url(#paint22_linear_160_132)" stroke-opacity="0.35"/>
<path d="M-4.99023 321.707C44.3191 354.427 116.464 328.93 237.01 375.208C374.288 423.761 453.558 212.288 565.709 256.184C677.86 300.079 845.061 462.904 1002.12 351.499C1194.84 223.786 1314.78 91.045 1512.45 177.264" stroke="url(#paint23_linear_160_132)" stroke-opacity="0.35"/>
<path d="M-4.99023 329.811C43.8523 361.152 120.065 331.629 239.14 381.028C373.969 433.059 458.216 217.962 572.546 263.197C686.876 308.431 850.294 471.398 1006.17 359.953C1188.7 237.858 1314.16 98.4266 1512.45 182.084" stroke="url(#paint24_linear_160_132)" stroke-opacity="0.35"/>
<path d="M-4.99023 337.948C43.3853 367.895 123.666 334.361 241.27 386.857C373.65 442.341 462.875 223.72 579.384 270.272C695.894 316.824 855.526 479.858 1010.21 368.425C1182.56 252 1313.53 105.946 1512.45 187.005" stroke="url(#paint25_linear_160_132)" stroke-opacity="0.35"/>
<path d="M-4.99023 346.114C42.9184 374.657 127.268 337.132 243.4 392.698C373.331 451.607 467.535 229.561 586.224 277.409C704.912 325.257 860.76 488.286 1014.26 376.913C1176.43 266.202 1312.91 113.597 1512.45 192.026" stroke="url(#paint26_linear_160_132)" stroke-opacity="0.35"/>
<path d="M-4.99023 354.309C42.4514 381.439 130.871 339.947 245.531 398.553C373.012 460.855 472.195 235.484 593.063 284.605C713.932 333.726 865.995 496.683 1018.3 385.417C1170.29 280.454 1312.29 121.375 1512.45 197.147" stroke="url(#paint27_linear_160_132)" stroke-opacity="0.35"/>
<path d="M-4.99023 362.318C41.9843 388.107 134.473 342.537 247.662 404.341C372.692 470.204 476.856 240.899 599.904 291.426C722.953 341.953 871.229 505.278 1022.35 393.817C1164.15 294.319 1311.67 128.337 1512.45 201.656" stroke="url(#paint28_linear_160_132)" stroke-opacity="0.35"/>
<path d="M-4.99023 371.121C41.5171 395.556 138.077 345.916 249.793 410.901C372.373 480.306 481.517 247.153 606.746 299.068C731.975 350.983 876.465 514.61 1026.4 403C1158.01 309.021 1311.05 136.188 1512.45 207.018" stroke="url(#paint29_linear_160_132)" stroke-opacity="0.35"/>
<path d="M-4.99023 379.397C41.0499 402.397 141.681 348.863 251.925 416.802C372.054 489.505 486.179 253.309 613.588 306.432C740.998 359.556 881.702 522.924 1030.45 411.547C1151.87 323.4 1310.42 144.318 1512.45 212.42" stroke="url(#paint30_linear_160_132)" stroke-opacity="0.35"/>
<path d="M-4.99023 388.252C40.5827 409.881 145.285 352.317 254.057 423.386C371.734 499.578 490.841 259.707 620.432 314.179C750.022 368.652 886.938 532.201 1034.5 420.758C1145.73 338.193 1309.8 152.393 1512.45 217.957" stroke="url(#paint31_linear_160_132)" stroke-opacity="0.35"/>
<defs>
<linearGradient id="paint0_linear_160_132" x1="752.724" y1="1" x2="752.724" y2="283.194" gradientUnits="userSpaceOnUse">
<stop stop-color="#0147C1"/>
<stop offset="0.520833" stop-color="#59F3D8"/>
<stop offset="1" stop-color="#0147C1" stop-opacity="0.55"/>
</linearGradient>
<linearGradient id="paint1_linear_160_132" x1="753.729" y1="211.112" x2="753.729" y2="468" gradientUnits="userSpaceOnUse">
<stop stop-color="#0147C1"/>
<stop offset="0.520833" stop-color="#59F3D8"/>
<stop offset="1" stop-color="#0147C1" stop-opacity="0.55"/>
</linearGradient>
<linearGradient id="paint2_linear_160_132" x1="752.724" y1="7.90146" x2="752.724" y2="285.494" gradientUnits="userSpaceOnUse">
<stop stop-color="#0147C1"/>
<stop offset="0.520833" stop-color="#59F3D8"/>
<stop offset="1" stop-color="#0147C1" stop-opacity="0.55"/>
</linearGradient>
<linearGradient id="paint3_linear_160_132" x1="752.724" y1="14.803" x2="752.724" y2="288.562" gradientUnits="userSpaceOnUse">
<stop stop-color="#0147C1"/>
<stop offset="0.520833" stop-color="#59F3D8"/>
<stop offset="1" stop-color="#0147C1" stop-opacity="0.55"/>
</linearGradient>
<linearGradient id="paint4_linear_160_132" x1="752.724" y1="20.9376" x2="752.724" y2="290.862" gradientUnits="userSpaceOnUse">
<stop stop-color="#0147C1"/>
<stop offset="0.520833" stop-color="#59F3D8"/>
<stop offset="1" stop-color="#0147C1" stop-opacity="0.55"/>
</linearGradient>
<linearGradient id="paint5_linear_160_132" x1="752.724" y1="27.8391" x2="752.724" y2="293.929" gradientUnits="userSpaceOnUse">
<stop stop-color="#0147C1"/>
<stop offset="0.520833" stop-color="#59F3D8"/>
<stop offset="1" stop-color="#0147C1" stop-opacity="0.55"/>
</linearGradient>
<linearGradient id="paint6_linear_160_132" x1="752.724" y1="34.7405" x2="752.724" y2="296.997" gradientUnits="userSpaceOnUse">
<stop stop-color="#0147C1"/>
<stop offset="0.520833" stop-color="#59F3D8"/>
<stop offset="1" stop-color="#0147C1" stop-opacity="0.55"/>
</linearGradient>
<linearGradient id="paint7_linear_160_132" x1="752.724" y1="41.6421" x2="752.724" y2="300.064" gradientUnits="userSpaceOnUse">
<stop stop-color="#0147C1"/>
<stop offset="0.520833" stop-color="#59F3D8"/>
<stop offset="1" stop-color="#0147C1" stop-opacity="0.55"/>
</linearGradient>
<linearGradient id="paint8_linear_160_132" x1="753.227" y1="48.5435" x2="753.227" y2="303.898" gradientUnits="userSpaceOnUse">
<stop stop-color="#0147C1"/>
<stop offset="0.520833" stop-color="#59F3D8"/>
<stop offset="1" stop-color="#0147C1" stop-opacity="0.55"/>
</linearGradient>
<linearGradient id="paint9_linear_160_132" x1="753.227" y1="55.445" x2="753.227" y2="307.732" gradientUnits="userSpaceOnUse">
<stop stop-color="#0147C1"/>
<stop offset="0.520833" stop-color="#59F3D8"/>
<stop offset="1" stop-color="#0147C1" stop-opacity="0.55"/>
</linearGradient>
<linearGradient id="paint10_linear_160_132" x1="753.227" y1="61.5797" x2="753.227" y2="311.567" gradientUnits="userSpaceOnUse">
<stop stop-color="#0147C1"/>
<stop offset="0.520833" stop-color="#59F3D8"/>
<stop offset="1" stop-color="#0147C1" stop-opacity="0.55"/>
</linearGradient>
<linearGradient id="paint11_linear_160_132" x1="753.227" y1="68.4811" x2="753.227" y2="316.167" gradientUnits="userSpaceOnUse">
<stop stop-color="#0147C1"/>
<stop offset="0.520833" stop-color="#59F3D8"/>
<stop offset="1" stop-color="#0147C1" stop-opacity="0.55"/>
</linearGradient>
<linearGradient id="paint12_linear_160_132" x1="753.227" y1="75.3826" x2="753.227" y2="320.768" gradientUnits="userSpaceOnUse">
<stop stop-color="#0147C1"/>
<stop offset="0.520833" stop-color="#59F3D8"/>
<stop offset="1" stop-color="#0147C1" stop-opacity="0.55"/>
</linearGradient>
<linearGradient id="paint13_linear_160_132" x1="753.227" y1="82.2841" x2="753.227" y2="325.369" gradientUnits="userSpaceOnUse">
<stop stop-color="#0147C1"/>
<stop offset="0.520833" stop-color="#59F3D8"/>
<stop offset="1" stop-color="#0147C1" stop-opacity="0.55"/>
</linearGradient>
<linearGradient id="paint14_linear_160_132" x1="753.227" y1="89.1856" x2="753.227" y2="329.97" gradientUnits="userSpaceOnUse">
<stop stop-color="#0147C1"/>
<stop offset="0.520833" stop-color="#59F3D8"/>
<stop offset="1" stop-color="#0147C1" stop-opacity="0.55"/>
</linearGradient>
<linearGradient id="paint15_linear_160_132" x1="753.227" y1="96.087" x2="753.227" y2="335.338" gradientUnits="userSpaceOnUse">
<stop stop-color="#0147C1"/>
<stop offset="0.520833" stop-color="#59F3D8"/>
<stop offset="1" stop-color="#0147C1" stop-opacity="0.55"/>
</linearGradient>
<linearGradient id="paint16_linear_160_132" x1="753.227" y1="102.222" x2="753.227" y2="340.706" gradientUnits="userSpaceOnUse">
<stop stop-color="#0147C1"/>
<stop offset="0.520833" stop-color="#59F3D8"/>
<stop offset="1" stop-color="#0147C1" stop-opacity="0.55"/>
</linearGradient>
<linearGradient id="paint17_linear_160_132" x1="753.227" y1="109.123" x2="753.227" y2="346.074" gradientUnits="userSpaceOnUse">
<stop stop-color="#0147C1"/>
<stop offset="0.520833" stop-color="#59F3D8"/>
<stop offset="1" stop-color="#0147C1" stop-opacity="0.55"/>
</linearGradient>
<linearGradient id="paint18_linear_160_132" x1="753.227" y1="116.025" x2="753.227" y2="351.442" gradientUnits="userSpaceOnUse">
<stop stop-color="#0147C1"/>
<stop offset="0.520833" stop-color="#59F3D8"/>
<stop offset="1" stop-color="#0147C1" stop-opacity="0.55"/>
</linearGradient>
<linearGradient id="paint19_linear_160_132" x1="753.227" y1="122.926" x2="753.227" y2="357.576" gradientUnits="userSpaceOnUse">
<stop stop-color="#0147C1"/>
<stop offset="0.520833" stop-color="#59F3D8"/>
<stop offset="1" stop-color="#0147C1" stop-opacity="0.55"/>
</linearGradient>
<linearGradient id="paint20_linear_160_132" x1="753.227" y1="129.828" x2="753.227" y2="365.245" gradientUnits="userSpaceOnUse">
<stop stop-color="#0147C1"/>
<stop offset="0.520833" stop-color="#59F3D8"/>
<stop offset="1" stop-color="#0147C1" stop-opacity="0.55"/>
</linearGradient>
<linearGradient id="paint21_linear_160_132" x1="753.729" y1="136.729" x2="753.729" y2="373.68" gradientUnits="userSpaceOnUse">
<stop stop-color="#0147C1"/>
<stop offset="0.520833" stop-color="#59F3D8"/>
<stop offset="1" stop-color="#0147C1" stop-opacity="0.55"/>
</linearGradient>
<linearGradient id="paint22_linear_160_132" x1="753.729" y1="142.864" x2="753.729" y2="381.348" gradientUnits="userSpaceOnUse">
<stop stop-color="#0147C1"/>
<stop offset="0.520833" stop-color="#59F3D8"/>
<stop offset="1" stop-color="#0147C1" stop-opacity="0.55"/>
</linearGradient>
<linearGradient id="paint23_linear_160_132" x1="753.729" y1="149.765" x2="753.729" y2="389.783" gradientUnits="userSpaceOnUse">
<stop stop-color="#0147C1"/>
<stop offset="0.520833" stop-color="#59F3D8"/>
<stop offset="1" stop-color="#0147C1" stop-opacity="0.55"/>
</linearGradient>
<linearGradient id="paint24_linear_160_132" x1="753.729" y1="156.667" x2="753.729" y2="398.218" gradientUnits="userSpaceOnUse">
<stop stop-color="#0147C1"/>
<stop offset="0.520833" stop-color="#59F3D8"/>
<stop offset="1" stop-color="#0147C1" stop-opacity="0.55"/>
</linearGradient>
<linearGradient id="paint25_linear_160_132" x1="753.729" y1="163.568" x2="753.729" y2="406.654" gradientUnits="userSpaceOnUse">
<stop stop-color="#0147C1"/>
<stop offset="0.520833" stop-color="#59F3D8"/>
<stop offset="1" stop-color="#0147C1" stop-opacity="0.55"/>
</linearGradient>
<linearGradient id="paint26_linear_160_132" x1="753.729" y1="170.47" x2="753.729" y2="415.089" gradientUnits="userSpaceOnUse">
<stop stop-color="#0147C1"/>
<stop offset="0.520833" stop-color="#59F3D8"/>
<stop offset="1" stop-color="#0147C1" stop-opacity="0.55"/>
</linearGradient>
<linearGradient id="paint27_linear_160_132" x1="753.729" y1="177.371" x2="753.729" y2="423.524" gradientUnits="userSpaceOnUse">
<stop stop-color="#0147C1"/>
<stop offset="0.520833" stop-color="#59F3D8"/>
<stop offset="1" stop-color="#0147C1" stop-opacity="0.55"/>
</linearGradient>
<linearGradient id="paint28_linear_160_132" x1="753.729" y1="183.506" x2="753.729" y2="431.959" gradientUnits="userSpaceOnUse">
<stop stop-color="#0147C1"/>
<stop offset="0.520833" stop-color="#59F3D8"/>
<stop offset="1" stop-color="#0147C1" stop-opacity="0.55"/>
</linearGradient>
<linearGradient id="paint29_linear_160_132" x1="753.729" y1="190.407" x2="753.729" y2="441.161" gradientUnits="userSpaceOnUse">
<stop stop-color="#0147C1"/>
<stop offset="0.520833" stop-color="#59F3D8"/>
<stop offset="1" stop-color="#0147C1" stop-opacity="0.55"/>
</linearGradient>
<linearGradient id="paint30_linear_160_132" x1="753.729" y1="197.309" x2="753.729" y2="449.596" gradientUnits="userSpaceOnUse">
<stop stop-color="#0147C1"/>
<stop offset="0.520833" stop-color="#59F3D8"/>
<stop offset="1" stop-color="#0147C1" stop-opacity="0.55"/>
</linearGradient>
<linearGradient id="paint31_linear_160_132" x1="753.729" y1="204.21" x2="753.729" y2="458.798" gradientUnits="userSpaceOnUse">
<stop stop-color="#0147C1"/>
<stop offset="0.520833" stop-color="#59F3D8"/>
<stop offset="1" stop-color="#0147C1" stop-opacity="0.55"/>
</linearGradient>
</defs>
</svg>
