<svg width="90" height="90" viewBox="0 0 90 90" fill="none" xmlns="http://www.w3.org/2000/svg">
<path d="M44.9824 11.25C26.4023 11.25 11.25 26.4023 11.25 45.0176C11.25 63.6152 26.4023 78.75 44.9824 78.75C46.4766 78.75 47.9355 78.6621 49.3594 78.4336C64.4238 76.5 76.3945 64.5996 78.416 49.5879C78.6445 48.0938 78.75 46.5645 78.75 45.0176C78.75 26.4023 63.5977 11.25 44.9824 11.25ZM14.6602 45.0176C14.6602 40.623 15.6094 36.4395 17.2969 32.6777L31.7637 72.3164C21.6387 67.3945 14.6602 57.0059 14.6602 45.0176ZM48.9199 75.1113C47.6367 75.2695 46.3184 75.3574 44.9824 75.3574C42.0117 75.3574 39.1465 74.918 36.4395 74.1094L39.7441 64.4414H39.7617L45.5098 47.6543L54.8438 73.2129C54.9141 73.3535 55.002 73.4941 55.0723 73.6172C53.1035 74.3203 51.0469 74.8125 48.9199 75.1113ZM49.1836 30.7793C51.0117 30.6914 52.6465 30.498 52.6465 30.498C54.2988 30.3223 54.0879 27.8965 52.4531 28.002C52.4531 28.002 47.5312 28.3887 44.3672 28.3887C41.3965 28.3887 36.3691 28.002 36.3691 28.002C34.752 27.8965 34.541 30.4102 36.1934 30.498C36.1934 30.498 37.7227 30.6914 39.375 30.7793L44.1035 43.7344L37.459 63.6504L26.4023 30.7793C28.248 30.6914 29.8828 30.498 29.8828 30.498C31.5 30.3223 31.3242 27.8965 29.6895 28.002C29.6895 28.002 24.7852 28.3887 21.6035 28.3887C21.0234 28.3887 20.3555 28.3711 19.6523 28.3535C25.0664 20.127 34.4004 14.6953 44.9824 14.6953C52.8926 14.6953 60.082 17.7188 65.4785 22.6406C65.3379 22.6406 65.2148 22.623 65.0742 22.623C62.0859 22.623 59.9766 25.2246 59.9766 28.0195C59.9766 30.5156 61.418 32.625 62.9473 35.1211C64.1074 37.1426 65.4609 39.7441 65.4609 43.4883C65.4609 46.0898 64.6875 49.3594 63.1582 53.2793L60.1172 63.4043L49.1836 30.7793ZM60.2402 71.2441L62.6484 64.2656L69.5039 44.4375C71.2441 40.1133 71.8066 36.6504 71.8066 33.5742C71.8066 32.4668 71.7363 31.4121 71.6133 30.4453C73.9863 34.7695 75.3398 39.7266 75.3398 45.0176C75.3398 46.4238 75.252 47.7949 75.0762 49.1484C73.7754 58.5879 68.1328 66.6562 60.2402 71.2441Z" fill="black"/>
</svg>
