<svg width="90" height="90" viewBox="0 0 90 90" fill="none" xmlns="http://www.w3.org/2000/svg">
<path d="M44.925 52.4699C49.0837 52.4699 52.455 49.0986 52.455 44.9399C52.455 40.7812 49.0837 37.4099 44.925 37.4099C40.7663 37.4099 37.395 40.7812 37.395 44.9399C37.395 49.0986 40.7663 52.4699 44.925 52.4699Z" fill="black"/>
<path d="M44.925 62.1901C34.35 62.1901 25.11 60.9451 18.195 58.5751C13.71 57.0451 9.89999 55.0051 7.18499 52.6801C4.30499 50.2201 2.77499 47.5351 2.77499 44.9401C2.77499 39.9601 8.23499 35.0851 17.4 31.9051C24.9 29.2951 34.68 27.8401 44.91 27.8401C54.96 27.8401 64.605 29.2501 72.06 31.8301C76.425 33.3301 80.1 35.2801 82.71 37.4401C85.545 39.8101 87.045 42.4051 87.045 44.9401C87.045 50.1151 80.94 55.3501 71.1 58.6051C64.14 60.9151 54.84 62.1901 44.925 62.1901ZM44.925 31.4401C35.22 31.4401 25.62 32.8501 18.6 35.2951C10.17 38.2351 6.38999 42.2551 6.38999 44.9401C6.38999 47.7301 10.455 52.1251 19.365 55.1701C25.905 57.4051 34.755 58.5901 44.925 58.5901C54.465 58.5901 63.36 57.3901 69.975 55.1851C79.23 52.1101 83.46 47.7151 83.46 44.9401C83.46 43.5151 82.38 41.8351 80.415 40.2001C78.15 38.3101 74.85 36.5851 70.905 35.2201C63.81 32.7901 54.585 31.4401 44.925 31.4401Z" fill="black"/>
<path d="M27.84 82.4701C26.31 82.4701 24.96 82.1401 23.82 81.4801C19.515 78.9901 18.015 71.8201 19.83 62.2951C21.315 54.4801 24.945 45.3001 30.06 36.4351C35.085 27.7351 41.115 20.0851 47.07 14.9101C50.55 11.8801 54.075 9.66011 57.255 8.49011C60.72 7.21512 63.72 7.21512 65.91 8.47512C70.395 11.0551 71.88 18.9751 69.78 29.1151C68.295 36.3151 64.755 45.0001 59.805 53.5951C54.525 62.7451 48.825 70.1251 43.32 74.9401C39.75 78.0601 36.075 80.3401 32.715 81.5251C30.96 82.1551 29.31 82.4701 27.84 82.4701ZM31.605 37.3351L33.165 38.2351C28.32 46.6351 24.735 55.6501 23.355 62.9701C21.69 71.7451 23.295 77.0251 25.605 78.3601C26.175 78.6901 26.925 78.8701 27.84 78.8701C30.825 78.8701 35.52 76.9801 40.95 72.2401C46.155 67.6951 51.6 60.6151 56.685 51.8101C61.455 43.5451 64.845 35.2351 66.255 28.4101C68.22 18.8551 66.525 13.0051 64.11 11.6101C62.88 10.9051 60.885 10.9951 58.485 11.8801C55.71 12.9001 52.575 14.8951 49.425 17.6401C43.77 22.5601 37.995 29.8801 33.165 38.2501L31.605 37.3351Z" fill="black"/>
<path d="M62.01 82.5151C57.93 82.5151 52.755 80.0551 47.355 75.4051C41.325 70.2151 35.19 62.4901 30.06 53.6251C25.02 44.9251 21.42 35.8801 19.905 28.1251C19.02 23.5951 18.855 19.4401 19.425 16.0951C20.055 12.4501 21.54 9.85508 23.745 8.58008C28.215 5.98508 35.82 8.65508 43.56 15.5401C49.05 20.4151 54.81 27.8251 59.775 36.4051C65.07 45.5551 68.625 54.1801 70.035 61.3501C70.95 66.0001 71.1 70.3201 70.455 73.8301C69.765 77.5651 68.205 80.2201 65.955 81.5251C64.83 82.1851 63.495 82.5151 62.01 82.5151ZM33.18 51.8251C38.04 60.2251 44.07 67.8301 49.71 72.6751C56.475 78.4951 61.845 79.7551 64.17 78.4051C66.585 77.0101 68.355 71.2951 66.525 62.0551C65.175 55.2751 61.77 47.0251 56.67 38.2201C51.885 29.9551 46.38 22.8601 41.175 18.2401C33.885 11.7601 27.975 10.3051 25.56 11.7001C24.33 12.4051 23.415 14.1901 22.98 16.7101C22.485 19.6201 22.635 23.3401 23.445 27.4351C24.885 34.8001 28.335 43.4551 33.18 51.8251Z" fill="black"/>
</svg>
