<svg width="90" height="90" viewBox="0 0 90 90" fill="none" xmlns="http://www.w3.org/2000/svg">
<path d="M69.375 35.6626C66.5627 34.694 64.0803 32.9524 62.2125 30.6376C60.1539 28.0584 57.5327 25.9843 54.5493 24.5739C51.566 23.1635 48.2996 22.4541 45 22.5001C40.5614 22.1857 36.1672 23.5547 32.6925 26.3345C29.2178 29.1142 26.9176 33.1007 26.25 37.5001C27.565 35.2997 29.5442 33.5733 31.9027 32.5693C34.2612 31.5652 36.8775 31.3353 39.375 31.9126C42.1826 32.9093 44.6609 34.661 46.5375 36.9751C48.6073 39.5336 51.2335 41.5863 54.2162 42.9769C57.1989 44.3675 60.4595 45.0595 63.75 45.0001C68.1886 45.3144 72.5828 43.9454 76.0574 41.1657C79.5321 38.3859 81.8323 34.3994 82.5 30.0001C81.2088 32.2267 79.2359 33.9792 76.8726 34.9988C74.5092 36.0184 71.8807 36.2511 69.375 35.6626ZM20.625 54.3376C23.4373 55.3061 25.9197 57.0477 27.7875 59.3626C29.8461 61.9417 32.4673 64.0158 35.4506 65.4262C38.4339 66.8366 41.7004 67.546 45 67.5001C49.4386 67.8144 53.8328 66.4454 57.3074 63.6657C60.7821 60.8859 63.0823 56.8994 63.75 52.5001C62.4349 54.7004 60.4558 56.4268 58.0972 57.4309C55.7387 58.4349 53.1225 58.6648 50.625 58.0876C47.8174 57.0908 45.339 55.3391 43.4625 53.0251C41.3871 50.4729 38.7598 48.4247 35.7784 47.0347C32.797 45.6446 29.5391 44.949 26.25 45.0001C21.8114 44.6857 17.4172 46.0547 13.9425 48.8345C10.4679 51.6142 8.16766 55.6007 7.5 60.0001C8.79115 57.7734 10.764 56.0209 13.1274 55.0013C15.4907 53.9817 18.1193 53.749 20.625 54.3376Z" fill="black"/>
</svg>
