<?xml version="1.0" encoding="UTF-8" standalone="no"?>
<!DOCTYPE svg PUBLIC "-//W3C//DTD SVG 1.1//EN" "http://www.w3.org/Graphics/SVG/1.1/DTD/svg11.dtd">
<svg width="100%" height="100%" viewBox="0 0 392 88" version="1.1" xmlns="http://www.w3.org/2000/svg" xmlns:xlink="http://www.w3.org/1999/xlink" xml:space="preserve" xmlns:serif="http://www.serif.com/" style="fill-rule:evenodd;clip-rule:evenodd;stroke-linejoin:round;stroke-miterlimit:2;">
    <g transform="matrix(1,0,0,1,-741.53,-1128.98)">
        <g>
            <path d="M761.53,1128.98L741.53,1128.98L741.53,1216.16L761.53,1216.16L761.53,1128.98ZM851.196,1216.16L851.196,1160.11L821.363,1209.07L818.363,1209.07L788.196,1159.57L788.196,1216.16L851.196,1216.16ZM906.082,1216.16L878.196,1216.16L878.196,1189.07L890.53,1189.07L906.082,1216.16ZM926.166,1177.59C923.3,1180.36 919.999,1182.73 916.363,1184.57L934.683,1216.16L949.408,1216.16C936.824,1207.24 928.383,1193.61 926.166,1177.59ZM1084.71,1216.16L1047.7,1216.16L1047.7,1164.07L1084.71,1216.16ZM1112.7,1128.98L1112.7,1216.16L1132.7,1216.16L1132.7,1128.98L1112.7,1128.98ZM1021.03,1192.95L1021.03,1145.18L1013.25,1149.52C1008.08,1140.86 998.083,1135.73 986.25,1135.73C965.583,1135.73 952.25,1149.03 952.25,1169.07C952.25,1189.1 965.583,1202.4 986.25,1202.4C998.083,1202.4 1008.25,1197.27 1013.25,1188.62L1021.03,1192.95ZM1086.03,1174.07L1054,1128.98L1086.03,1128.98L1086.03,1174.07ZM878.196,1135.73L897.863,1135.73C905.196,1135.73 911.196,1142.23 911.196,1150.73C911.196,1159.23 905.196,1165.73 897.863,1165.73L878.196,1165.73L878.196,1135.73ZM819.863,1162.57L799.344,1128.98L840.382,1128.98L819.863,1162.57ZM941.28,1128.98L931.477,1128.98C932.987,1131.32 934.26,1133.82 935.263,1136.46C937.05,1133.8 939.062,1131.3 941.28,1128.98Z"/>
        </g>
    </g>
</svg>
