<svg width="1512" height="264" viewBox="0 0 1512 264" fill="none" xmlns="http://www.w3.org/2000/svg">
<path d="M1518.82 169.644C1479.77 137.344 1370.99 67.3395 1333.8 86.7195C1287.31 110.945 1302.79 134.379 1261.28 129.579C1212.94 123.989 1121.82 20.5665 1077.2 67.1531C1047.03 98.6506 956.58 163.12 865.221 129.579C771.319 95.105 691.362 67.153 640.228 114.671C594.091 157.546 574.384 1.00002 504.488 1C81.4641 0.999905 104.707 138.897 -5.00012 86.7195" stroke="url(#paint0_linear_192_18)" stroke-opacity="0.35"/>
<path d="M1517.81 225.045C1488.71 210.541 1414.48 218.289 1389.62 225.045C1328.31 241.708 1220.38 250.229 1166.68 225.045C1103.51 195.421 1023.62 277.812 939.09 256.52C854.558 235.228 725.941 205.372 675.275 209.307C603.747 214.861 522.462 164.217 471.839 141.727C394.738 107.475 12.0201 173.203 -0.984907 263" stroke="url(#paint1_linear_192_18)" stroke-opacity="0.35"/>
<path d="M1518.82 171.651C1480.95 140.54 1376.18 73.786 1339.58 92.2904C1294.12 115.409 1307.68 137.903 1267.57 133.493C1218.63 128.967 1126.77 30.8739 1081.73 74.037C1050 102.616 960.104 167.967 869.115 135.002C775.707 101.147 693.473 73.094 642.386 118.54C595.063 159.641 572.433 8.11585 503.49 7.03793C97.1559 5.39614 101.05 139.882 -3.9963 94.4917" stroke="url(#paint2_linear_192_18)" stroke-opacity="0.35"/>
<path d="M1518.82 174.663C1482.11 144.747 1381.28 81.2544 1345.23 98.8798C1300.78 120.888 1312.42 142.436 1273.69 138.418C1224.13 134.957 1131.45 42.211 1085.97 81.9427C1052.67 107.598 963.258 173.818 872.58 141.434C779.603 108.206 695.038 80.0572 643.966 123.423C595.425 162.742 569.859 16.2661 501.823 14.1105C111.904 10.8275 96.4595 141.878 -3.99631 103.282" stroke="url(#paint3_linear_192_18)" stroke-opacity="0.35"/>
<path d="M1518.82 176.671C1483.28 147.955 1386.37 87.7369 1350.89 104.48C1307.44 125.374 1317.16 145.972 1279.82 142.345C1229.63 139.951 1136.13 52.5686 1090.21 88.8622C1055.33 111.59 966.412 178.665 876.046 146.869C783.5 114.273 696.604 86.0349 645.546 127.312C595.788 164.842 567.284 23.444 500.156 20.2119C126.656 15.2892 91.8682 142.878 -3.9963 111.08" stroke="url(#paint4_linear_192_18)" stroke-opacity="0.35"/>
<path d="M1518.82 177.674C1484.44 150.347 1391.47 93.7884 1356.55 109.541C1314.1 129.187 1321.91 148.702 1285.94 145.489C1235.13 144.168 1140.81 62.7059 1094.46 95.3396C1058 115.007 969.567 182.472 879.512 151.477C787.399 119.732 698.17 91.597 647.126 130.519C596.151 166.018 564.709 30.6242 498.488 26.3457C141.411 19.8293 87.2759 143.111 -3.99632 118.279" stroke="url(#paint5_linear_192_18)" stroke-opacity="0.35"/>
<path d="M1518.82 180.686C1485.6 154.567 1396.57 101.293 1362.21 116.161C1320.77 134.688 1326.66 153.249 1292.07 150.426C1240.63 150.162 1145.5 74.0729 1098.7 103.276C1060.66 120.029 972.724 188.294 882.979 157.903C791.298 126.807 699.737 98.6031 648.707 135.428C596.514 169.129 562.133 38.8623 496.82 33.5199C156.169 25.383 82.6825 145.148 -3.99632 127.071" stroke="url(#paint6_linear_192_18)" stroke-opacity="0.35"/>
<path d="M1518.82 182.694C1486.76 157.616 1401.67 107.285 1367.87 121.362C1327.43 138.889 1331.4 156.615 1298.2 154.166C1246.13 154.962 1150.18 83.7629 1102.95 109.715C1063.33 123.651 975.88 193.175 886.447 163.188C795.198 132.538 701.304 104.076 650.288 139.039C596.877 171.16 559.556 45.1745 495.151 38.7276C170.931 28.9086 78.088 145.939 -3.99638 134.528" stroke="url(#paint7_linear_192_18)" stroke-opacity="0.35"/>
<path d="M1518.82 185.705C1487.92 161.68 1406.77 114.329 1373.53 127.606C1334.1 144.121 1336.15 161.002 1304.33 158.93C1251.63 160.798 1154.87 94.5473 1107.19 117.211C1066 128.298 979.038 199.091 889.916 169.516C799.099 139.316 702.871 110.595 651.87 143.675C597.241 174.195 556.979 52.5447 493.483 44.9812C185.697 33.4617 73.4925 147.722 -3.99638 143.052" stroke="url(#paint8_linear_192_18)" stroke-opacity="0.35"/>
<path d="M1518.82 188.716C1489.09 165.758 1411.88 121.422 1379.2 133.89C1340.76 149.381 1340.9 165.406 1310.46 163.716C1257.14 166.668 1159.56 105.424 1111.44 124.761C1068.67 132.967 982.196 205.04 893.385 175.881C803.001 146.139 704.439 117.158 653.452 148.331C597.604 177.231 554.401 59.9718 491.813 51.2798C200.465 38.0414 68.896 149.494 -3.99635 151.64" stroke="url(#paint9_linear_192_18)" stroke-opacity="0.35"/>
<path d="M1517.81 190.724C1489.26 169.17 1416.04 128.498 1383.95 139.973C1346.54 154.213 1344.76 169.147 1315.72 167.863C1261.81 171.85 1163.48 116.507 1114.95 132.243C1070.63 137.456 984.703 209.73 896.262 181.42C806.369 152.578 705.538 123.769 654.6 152.578C597.57 179.435 551.456 68.2956 489.818 58.6088C215.093 43.8554 64.2532 150.85 -3.99648 159.755" stroke="url(#paint10_linear_192_18)" stroke-opacity="0.35"/>
<path d="M1517.81 193.359C1490.44 172.949 1421.21 135.443 1389.7 146.067C1353.32 159.23 1349.62 173.253 1321.98 172.357C1267.48 177.419 1168.39 127.292 1119.46 139.633C1073.59 141.936 988.21 215.249 900.139 187.454C810.737 159.17 707.641 130.198 656.75 156.994C598.54 182.133 549.518 75.7809 488.828 64.9942C230.709 48.5655 60.6194 152.377 -2.99259 168.095" stroke="url(#paint11_linear_192_18)" stroke-opacity="0.35"/>
<path d="M1517.81 196.229C1491.61 176.937 1426.31 142.556 1395.36 152.339C1359.98 164.44 1354.37 177.571 1328.1 177.064C1272.98 183.214 1173.08 138.254 1123.71 147.202C1076.26 146.58 991.366 221.053 903.606 193.733C814.636 165.966 709.207 136.783 658.331 161.598C598.903 185.048 546.942 83.3433 487.16 71.433C245.468 53.293 56.0257 154.066 -2.99257 176.662" stroke="url(#paint12_linear_192_18)" stroke-opacity="0.35"/>
<path d="M1517.81 198.118C1492.77 180.101 1431.41 149.123 1401.02 157.987C1366.65 168.928 1359.12 181.059 1334.23 180.944C1278.48 188.133 1177.76 148.703 1127.95 154.186C1078.93 150.647 994.523 225.674 907.074 199.05C818.537 172.025 710.774 142.87 659.912 165.502C599.267 187.074 544.365 90.8405 485.491 77.9041C260.231 58.2012 51.4309 155.118 -2.9926 184.406" stroke="url(#paint13_linear_192_18)" stroke-opacity="0.35"/>
<path d="M1517.81 201.036C1493.93 184.292 1436.51 156.702 1406.68 164.651C1373.31 174.437 1363.86 185.571 1340.36 185.845C1283.99 194.059 1182.45 160.129 1132.2 162.176C1081.59 155.748 997.681 231.285 910.543 205.364C822.438 179.089 712.342 149.976 661.494 170.434C599.63 190.134 541.788 99.372 483.823 85.4256C274.998 64.1846 46.8351 157.23 -2.99251 193.132" stroke="url(#paint14_linear_192_18)" stroke-opacity="0.35"/>
<path d="M1517.81 204.787C1495.09 189.068 1441.62 164.465 1412.35 171.614C1379.98 180.387 1368.61 190.688 1346.49 191.358C1289.49 200.727 1187.14 171.811 1136.45 170.434C1084.26 161.005 1000.84 238.202 914.013 212.595C826.34 186.674 713.91 157.162 663.076 175.743C599.993 193.862 539.209 107.221 482.153 92.0477C289.768 68.9376 42.2381 159.504 -2.99256 202.601" stroke="url(#paint15_linear_192_18)" stroke-opacity="0.35"/>
<path d="M1517.81 206.718C1496.26 192.281 1446.72 171.071 1418.01 177.303C1386.65 184.918 1373.37 194.218 1352.63 195.274C1295 205.654 1191.83 182.237 1140.7 177.444C1086.93 165.15 1004 242.778 917.484 217.896C830.243 192.746 715.478 163.305 664.658 179.706C600.357 195.944 536.631 114.832 480.483 98.669C304.541 74.0518 37.6401 160.677 -2.99256 210.311" stroke="url(#paint16_linear_192_18)" stroke-opacity="0.35"/>
<path d="M1517.81 209.391C1497.42 196.021 1451.83 177.896 1423.68 183.301C1393.32 189.87 1378.12 198.306 1358.76 199.766C1300.5 211.316 1196.52 193.063 1144.95 184.769C1089.6 169.415 1007.16 248.652 920.955 224.12C834.147 199.363 717.046 169.548 666.241 184.008C600.72 198.606 534.052 121.813 478.813 104.412C319.318 77.9097 33.0411 161.893 -2.99254 218.837" stroke="url(#paint17_linear_192_18)" stroke-opacity="0.35"/>
<path d="M1517.81 212.362C1498.58 200.275 1456.93 185.534 1429.35 190.024C1399.99 195.439 1382.87 202.872 1364.89 204.714C1306.01 217.253 1201.21 204.468 1149.2 192.798C1092.27 174.623 1010.32 254.201 924.428 230.414C838.052 206.448 718.615 176.736 667.824 189.019C601.084 201.738 531.472 130.505 477.143 112.143C334.098 84.1757 28.4409 164.164 -2.99257 227.523" stroke="url(#paint18_linear_192_18)" stroke-opacity="0.35"/>
<path d="M1517.81 215.985C1499.75 205.001 1462.04 193.425 1435.02 197.066C1406.67 201.407 1387.63 207.95 1371.03 210.202C1311.52 223.919 1205.9 216.419 1153.45 201.191C1094.94 179.915 1013.48 261.038 927.901 237.637C841.958 214.102 720.184 184.044 669.408 194.332C601.447 205.362 528.891 138.622 475.472 119.018C348.882 89.162 23.8397 166.358 -2.99255 237.099" stroke="url(#paint19_linear_192_18)" stroke-opacity="0.35"/>
<path d="M1517.81 218.786C1500.91 209.006 1467.15 200.717 1440.69 203.472C1413.34 206.694 1392.38 212.285 1377.17 214.931C1317.03 229.723 1210.59 227.611 1157.7 208.924C1097.62 184.701 1016.64 266.703 931.375 243.888C845.865 220.982 721.754 190.826 670.992 199.018C601.811 208.253 526.31 146.598 473.8 125.908C363.669 94.3956 19.2374 168.133 -2.99259 245.725" stroke="url(#paint20_linear_192_18)" stroke-opacity="0.35"/>
<path d="M1517.81 221.568C1502.1 213.088 1472.32 208.141 1446.46 209.99C1420.15 212.069 1397.3 216.656 1383.49 219.662C1322.8 235.351 1215.69 238.59 1162.43 216.692C1100.84 189.826 1020.46 271.782 935.619 249.799C850.654 227.772 724.373 197.856 673.692 203.884C603.384 211.242 525.041 155.303 473.509 133.769C379.964 100.973 16.6184 170.466 -0.984904 253.966" stroke="url(#paint21_linear_192_18)" stroke-opacity="0.35"/>
<defs>
<linearGradient id="paint0_linear_192_18" x1="756.908" y1="1" x2="756.908" y2="169.644" gradientUnits="userSpaceOnUse">
<stop stop-color="#0147C1"/>
<stop offset="0.520833" stop-color="#59F3D8"/>
<stop offset="1" stop-color="#0147C1" stop-opacity="0.55"/>
</linearGradient>
<linearGradient id="paint1_linear_192_18" x1="758.414" y1="132.502" x2="758.414" y2="263" gradientUnits="userSpaceOnUse">
<stop stop-color="#0147C1"/>
<stop offset="0.520833" stop-color="#59F3D8"/>
<stop offset="1" stop-color="#0147C1" stop-opacity="0.55"/>
</linearGradient>
<linearGradient id="paint2_linear_192_18" x1="757.41" y1="7.02301" x2="757.41" y2="171.651" gradientUnits="userSpaceOnUse">
<stop stop-color="#0147C1"/>
<stop offset="0.520833" stop-color="#59F3D8"/>
<stop offset="1" stop-color="#0147C1" stop-opacity="0.55"/>
</linearGradient>
<linearGradient id="paint3_linear_192_18" x1="757.41" y1="14.0498" x2="757.41" y2="174.663" gradientUnits="userSpaceOnUse">
<stop stop-color="#0147C1"/>
<stop offset="0.520833" stop-color="#59F3D8"/>
<stop offset="1" stop-color="#0147C1" stop-opacity="0.55"/>
</linearGradient>
<linearGradient id="paint4_linear_192_18" x1="757.41" y1="20.0728" x2="757.41" y2="176.671" gradientUnits="userSpaceOnUse">
<stop stop-color="#0147C1"/>
<stop offset="0.520833" stop-color="#59F3D8"/>
<stop offset="1" stop-color="#0147C1" stop-opacity="0.55"/>
</linearGradient>
<linearGradient id="paint5_linear_192_18" x1="757.41" y1="26.0958" x2="757.41" y2="177.674" gradientUnits="userSpaceOnUse">
<stop stop-color="#0147C1"/>
<stop offset="0.520833" stop-color="#59F3D8"/>
<stop offset="1" stop-color="#0147C1" stop-opacity="0.55"/>
</linearGradient>
<linearGradient id="paint6_linear_192_18" x1="757.41" y1="33.1226" x2="757.41" y2="180.686" gradientUnits="userSpaceOnUse">
<stop stop-color="#0147C1"/>
<stop offset="0.520833" stop-color="#59F3D8"/>
<stop offset="1" stop-color="#0147C1" stop-opacity="0.55"/>
</linearGradient>
<linearGradient id="paint7_linear_192_18" x1="757.41" y1="38.1418" x2="757.41" y2="182.694" gradientUnits="userSpaceOnUse">
<stop stop-color="#0147C1"/>
<stop offset="0.520833" stop-color="#59F3D8"/>
<stop offset="1" stop-color="#0147C1" stop-opacity="0.55"/>
</linearGradient>
<linearGradient id="paint8_linear_192_18" x1="757.41" y1="44.1647" x2="757.41" y2="185.705" gradientUnits="userSpaceOnUse">
<stop stop-color="#0147C1"/>
<stop offset="0.520833" stop-color="#59F3D8"/>
<stop offset="1" stop-color="#0147C1" stop-opacity="0.55"/>
</linearGradient>
<linearGradient id="paint9_linear_192_18" x1="757.41" y1="50.1877" x2="757.41" y2="188.716" gradientUnits="userSpaceOnUse">
<stop stop-color="#0147C1"/>
<stop offset="0.520833" stop-color="#59F3D8"/>
<stop offset="1" stop-color="#0147C1" stop-opacity="0.55"/>
</linearGradient>
<linearGradient id="paint10_linear_192_18" x1="756.908" y1="57.2145" x2="756.908" y2="190.724" gradientUnits="userSpaceOnUse">
<stop stop-color="#0147C1"/>
<stop offset="0.520833" stop-color="#59F3D8"/>
<stop offset="1" stop-color="#0147C1" stop-opacity="0.55"/>
</linearGradient>
<linearGradient id="paint11_linear_192_18" x1="757.41" y1="63.2375" x2="757.41" y2="193.736" gradientUnits="userSpaceOnUse">
<stop stop-color="#0147C1"/>
<stop offset="0.520833" stop-color="#59F3D8"/>
<stop offset="1" stop-color="#0147C1" stop-opacity="0.55"/>
</linearGradient>
<linearGradient id="paint12_linear_192_18" x1="757.41" y1="69.2606" x2="757.41" y2="199.759" gradientUnits="userSpaceOnUse">
<stop stop-color="#0147C1"/>
<stop offset="0.520833" stop-color="#59F3D8"/>
<stop offset="1" stop-color="#0147C1" stop-opacity="0.55"/>
</linearGradient>
<linearGradient id="paint13_linear_192_18" x1="757.41" y1="75.2835" x2="757.41" y2="204.778" gradientUnits="userSpaceOnUse">
<stop stop-color="#0147C1"/>
<stop offset="0.520833" stop-color="#59F3D8"/>
<stop offset="1" stop-color="#0147C1" stop-opacity="0.55"/>
</linearGradient>
<linearGradient id="paint14_linear_192_18" x1="757.41" y1="82.3104" x2="757.41" y2="210.801" gradientUnits="userSpaceOnUse">
<stop stop-color="#0147C1"/>
<stop offset="0.520833" stop-color="#59F3D8"/>
<stop offset="1" stop-color="#0147C1" stop-opacity="0.55"/>
</linearGradient>
<linearGradient id="paint15_linear_192_18" x1="757.41" y1="88.3333" x2="757.41" y2="217.828" gradientUnits="userSpaceOnUse">
<stop stop-color="#0147C1"/>
<stop offset="0.520833" stop-color="#59F3D8"/>
<stop offset="1" stop-color="#0147C1" stop-opacity="0.55"/>
</linearGradient>
<linearGradient id="paint16_linear_192_18" x1="757.41" y1="94.3563" x2="757.41" y2="222.847" gradientUnits="userSpaceOnUse">
<stop stop-color="#0147C1"/>
<stop offset="0.520833" stop-color="#59F3D8"/>
<stop offset="1" stop-color="#0147C1" stop-opacity="0.55"/>
</linearGradient>
<linearGradient id="paint17_linear_192_18" x1="757.41" y1="99.3755" x2="757.41" y2="228.87" gradientUnits="userSpaceOnUse">
<stop stop-color="#0147C1"/>
<stop offset="0.520833" stop-color="#59F3D8"/>
<stop offset="1" stop-color="#0147C1" stop-opacity="0.55"/>
</linearGradient>
<linearGradient id="paint18_linear_192_18" x1="757.41" y1="106.402" x2="757.41" y2="234.893" gradientUnits="userSpaceOnUse">
<stop stop-color="#0147C1"/>
<stop offset="0.520833" stop-color="#59F3D8"/>
<stop offset="1" stop-color="#0147C1" stop-opacity="0.55"/>
</linearGradient>
<linearGradient id="paint19_linear_192_18" x1="757.41" y1="112.425" x2="757.41" y2="241.92" gradientUnits="userSpaceOnUse">
<stop stop-color="#0147C1"/>
<stop offset="0.520833" stop-color="#59F3D8"/>
<stop offset="1" stop-color="#0147C1" stop-opacity="0.55"/>
</linearGradient>
<linearGradient id="paint20_linear_192_18" x1="757.41" y1="118.448" x2="757.41" y2="247.942" gradientUnits="userSpaceOnUse">
<stop stop-color="#0147C1"/>
<stop offset="0.520833" stop-color="#59F3D8"/>
<stop offset="1" stop-color="#0147C1" stop-opacity="0.55"/>
</linearGradient>
<linearGradient id="paint21_linear_192_18" x1="758.414" y1="125.475" x2="758.414" y2="253.966" gradientUnits="userSpaceOnUse">
<stop stop-color="#0147C1"/>
<stop offset="0.520833" stop-color="#59F3D8"/>
<stop offset="1" stop-color="#0147C1" stop-opacity="0.55"/>
</linearGradient>
</defs>
</svg>
